solid ascii
 facet normal -0.711857 0.702325 0
  outer loop
   vertex 18.772 5.079 4242.64
   vertex 18.772 5.079 -4242.64
   vertex 18.533 4.83679 -4242.64
  endloop
 endfacet
 facet normal -0.711857 0.702325 0
  outer loop
   vertex 18.772 5.079 4242.64
   vertex 18.533 4.83679 -4242.64
   vertex 18.533 4.83679 4242.64
  endloop
 endfacet
 facet normal -0.714194 0.699948 0
  outer loop
   vertex 18.533 4.83679 4242.64
   vertex 18.533 4.83679 -4242.64
   vertex 18.2772 4.5758 -4242.64
  endloop
 endfacet
 facet normal -0.714194 0.699948 0
  outer loop
   vertex 18.533 4.83679 4242.64
   vertex 18.2772 4.5758 -4242.64
   vertex 18.2772 4.5758 4242.64
  endloop
 endfacet
 facet normal -0.7175 0.696559 0
  outer loop
   vertex 18.2772 4.5758 4242.64
   vertex 18.2772 4.5758 -4242.64
   vertex 18.0039 4.2942 -4242.64
  endloop
 endfacet
 facet normal -0.7175 0.696559 0
  outer loop
   vertex 18.2772 4.5758 4242.64
   vertex 18.0039 4.2942 -4242.64
   vertex 18.0039 4.2942 4242.64
  endloop
 endfacet
 facet normal -0.720566 0.693386 0
  outer loop
   vertex 18.0039 4.2942 4242.64
   vertex 18.0039 4.2942 -4242.64
   vertex 17.7116 3.99047 -4242.64
  endloop
 endfacet
 facet normal -0.720566 0.693386 0
  outer loop
   vertex 18.0039 4.2942 4242.64
   vertex 17.7116 3.99047 -4242.64
   vertex 17.7116 3.99047 4242.64
  endloop
 endfacet
 facet normal -0.72389 0.689915 0
  outer loop
   vertex 17.7116 3.99047 4242.64
   vertex 17.7116 3.99047 -4242.64
   vertex 17.3993 3.66275 -4242.64
  endloop
 endfacet
 facet normal -0.72389 0.689915 0
  outer loop
   vertex 17.7116 3.99047 4242.64
   vertex 17.3993 3.66275 -4242.64
   vertex 17.3993 3.66275 4242.64
  endloop
 endfacet
 facet normal -0.727443 0.686168 0
  outer loop
   vertex 17.3993 3.66275 4242.64
   vertex 17.3993 3.66275 -4242.64
   vertex 17.0656 3.30906 -4242.64
  endloop
 endfacet
 facet normal -0.727443 0.686168 0
  outer loop
   vertex 17.3993 3.66275 4242.64
   vertex 17.0656 3.30906 -4242.64
   vertex 17.0656 3.30906 4242.64
  endloop
 endfacet
 facet normal -0.730986 0.682392 0
  outer loop
   vertex 17.0656 3.30906 4242.64
   vertex 17.0656 3.30906 -4242.64
   vertex 16.7093 2.92735 -4242.64
  endloop
 endfacet
 facet normal -0.730986 0.682392 0
  outer loop
   vertex 17.0656 3.30906 4242.64
   vertex 16.7093 2.92735 -4242.64
   vertex 16.7093 2.92735 4242.64
  endloop
 endfacet
 facet normal -0.734178 0.678958 0
  outer loop
   vertex 16.7093 2.92735 4242.64
   vertex 16.7093 2.92735 -4242.64
   vertex 16.3285 2.5156 -4242.64
  endloop
 endfacet
 facet normal -0.734178 0.678958 0
  outer loop
   vertex 16.7093 2.92735 4242.64
   vertex 16.3285 2.5156 -4242.64
   vertex 16.3285 2.5156 4242.64
  endloop
 endfacet
 facet normal -0.736597 0.676332 0
  outer loop
   vertex 16.3285 2.5156 4242.64
   vertex 16.3285 2.5156 -4242.64
   vertex 15.9211 2.07192 -4242.64
  endloop
 endfacet
 facet normal -0.736597 0.676332 0
  outer loop
   vertex 16.3285 2.5156 4242.64
   vertex 15.9211 2.07192 -4242.64
   vertex 15.9211 2.07192 4242.64
  endloop
 endfacet
 facet normal -0.738666 0.674072 0
  outer loop
   vertex 15.9211 2.07192 4242.64
   vertex 15.9211 2.07192 -4242.64
   vertex 15.4851 1.59407 -4242.64
  endloop
 endfacet
 facet normal -0.738666 0.674072 0
  outer loop
   vertex 15.9211 2.07192 4242.64
   vertex 15.4851 1.59407 -4242.64
   vertex 15.4851 1.59407 4242.64
  endloop
 endfacet
 facet normal -0.741074 0.671423 0
  outer loop
   vertex 15.4851 1.59407 4242.64
   vertex 15.4851 1.59407 -4242.64
   vertex 15.0186 1.07919 -4242.64
  endloop
 endfacet
 facet normal -0.741074 0.671423 0
  outer loop
   vertex 15.4851 1.59407 4242.64
   vertex 15.0186 1.07919 -4242.64
   vertex 15.0186 1.07919 4242.64
  endloop
 endfacet
 facet normal -0.742277 0.670094 0
  outer loop
   vertex 15.0186 1.07919 4242.64
   vertex 15.0186 1.07919 -4242.64
   vertex 14.5186 0.525309 -4242.64
  endloop
 endfacet
 facet normal -0.742277 0.670094 0
  outer loop
   vertex 15.0186 1.07919 4242.64
   vertex 14.5186 0.525309 -4242.64
   vertex 14.5186 0.525309 4242.64
  endloop
 endfacet
 facet normal -0.742394 0.669963 0
  outer loop
   vertex 14.5186 0.525309 4242.64
   vertex 14.5186 0.525309 -4242.64
   vertex 13.9817 -0.0696532 -4242.64
  endloop
 endfacet
 facet normal -0.742394 0.669963 0
  outer loop
   vertex 14.5186 0.525309 4242.64
   vertex 13.9817 -0.0696532 -4242.64
   vertex 13.9817 -0.0696532 4242.64
  endloop
 endfacet
 facet normal -0.742094 0.670296 0
  outer loop
   vertex 13.9817 -0.0696532 4242.64
   vertex 13.9817 -0.0696532 -4242.64
   vertex 13.4047 -0.708385 -4242.64
  endloop
 endfacet
 facet normal -0.742094 0.670296 0
  outer loop
   vertex 13.9817 -0.0696532 4242.64
   vertex 13.4047 -0.708385 -4242.64
   vertex 13.4047 -0.708385 4242.64
  endloop
 endfacet
 facet normal -0.741079 0.671418 0
  outer loop
   vertex 13.4047 -0.708385 4242.64
   vertex 13.4047 -0.708385 -4242.64
   vertex 12.7841 -1.39344 -4242.64
  endloop
 endfacet
 facet normal -0.741079 0.671418 0
  outer loop
   vertex 13.4047 -0.708385 4242.64
   vertex 12.7841 -1.39344 -4242.64
   vertex 12.7841 -1.39344 4242.64
  endloop
 endfacet
 facet normal -0.737621 0.675215 0
  outer loop
   vertex 12.7841 -1.39344 4242.64
   vertex 12.7841 -1.39344 -4242.64
   vertex 12.1137 -2.12576 -4242.64
  endloop
 endfacet
 facet normal -0.737621 0.675215 0
  outer loop
   vertex 12.7841 -1.39344 4242.64
   vertex 12.1137 -2.12576 -4242.64
   vertex 12.1137 -2.12576 4242.64
  endloop
 endfacet
 facet normal -0.732444 0.680828 0
  outer loop
   vertex 12.1137 -2.12576 4242.64
   vertex 12.1137 -2.12576 -4242.64
   vertex 11.3877 -2.90675 -4242.64
  endloop
 endfacet
 facet normal -0.732444 0.680828 0
  outer loop
   vertex 12.1137 -2.12576 4242.64
   vertex 11.3877 -2.90675 -4242.64
   vertex 11.3877 -2.90675 4242.64
  endloop
 endfacet
 facet normal -0.728617 0.684921 0
  outer loop
   vertex 11.3877 -2.90675 4242.64
   vertex 11.3877 -2.90675 -4242.64
   vertex 10.6034 -3.74115 -4242.64
  endloop
 endfacet
 facet normal -0.728617 0.684921 0
  outer loop
   vertex 11.3877 -2.90675 4242.64
   vertex 10.6034 -3.74115 -4242.64
   vertex 10.6034 -3.74115 4242.64
  endloop
 endfacet
 facet normal -0.724584 0.689187 0
  outer loop
   vertex 10.6034 -3.74115 4242.64
   vertex 10.6034 -3.74115 -4242.64
   vertex 9.75573 -4.63234 -4242.64
  endloop
 endfacet
 facet normal -0.724584 0.689187 0
  outer loop
   vertex 10.6034 -3.74115 4242.64
   vertex 9.75573 -4.63234 -4242.64
   vertex 9.75573 -4.63234 4242.64
  endloop
 endfacet
 facet normal -0.720364 0.693597 0
  outer loop
   vertex 9.75573 -4.63234 4242.64
   vertex 9.75573 -4.63234 -4242.64
   vertex 8.83953 -5.5839 -4242.64
  endloop
 endfacet
 facet normal -0.720364 0.693597 0
  outer loop
   vertex 9.75573 -4.63234 4242.64
   vertex 8.83953 -5.5839 -4242.64
   vertex 8.83953 -5.5839 4242.64
  endloop
 endfacet
 facet normal -0.716499 0.697588 0
  outer loop
   vertex 8.83953 -5.5839 4242.64
   vertex 8.83953 -5.5839 -4242.64
   vertex 7.84986 -6.60039 -4242.64
  endloop
 endfacet
 facet normal -0.716499 0.697588 0
  outer loop
   vertex 8.83953 -5.5839 4242.64
   vertex 7.84986 -6.60039 -4242.64
   vertex 7.84986 -6.60039 4242.64
  endloop
 endfacet
 facet normal -0.712781 0.701386 0
  outer loop
   vertex 7.84986 -6.60039 4242.64
   vertex 7.84986 -6.60039 -4242.64
   vertex 6.78118 -7.68644 -4242.64
  endloop
 endfacet
 facet normal -0.712781 0.701386 0
  outer loop
   vertex 7.84986 -6.60039 4242.64
   vertex 6.78118 -7.68644 -4242.64
   vertex 6.78118 -7.68644 4242.64
  endloop
 endfacet
 facet normal -0.709029 0.705179 0
  outer loop
   vertex 6.78118 -7.68644 4242.64
   vertex 6.78118 -7.68644 -4242.64
   vertex 5.6272 -8.84671 -4242.64
  endloop
 endfacet
 facet normal -0.709029 0.705179 0
  outer loop
   vertex 6.78118 -7.68644 4242.64
   vertex 5.6272 -8.84671 -4242.64
   vertex 5.6272 -8.84671 4242.64
  endloop
 endfacet
 facet normal -0.705735 0.708476 0
  outer loop
   vertex 5.6272 -8.84671 4242.64
   vertex 5.6272 -8.84671 -4242.64
   vertex 4.38204 -10.0871 -4242.64
  endloop
 endfacet
 facet normal -0.705735 0.708476 0
  outer loop
   vertex 5.6272 -8.84671 4242.64
   vertex 4.38204 -10.0871 -4242.64
   vertex 4.38204 -10.0871 4242.64
  endloop
 endfacet
 facet normal -0.703191 0.711001 0
  outer loop
   vertex 4.38204 -10.0871 4242.64
   vertex 4.38204 -10.0871 -4242.64
   vertex 3.03996 -11.4144 -4242.64
  endloop
 endfacet
 facet normal -0.703191 0.711001 0
  outer loop
   vertex 4.38204 -10.0871 4242.64
   vertex 3.03996 -11.4144 -4242.64
   vertex 3.03996 -11.4144 4242.64
  endloop
 endfacet
 facet normal -0.701132 0.713032 0
  outer loop
   vertex 3.03996 -11.4144 4242.64
   vertex 3.03996 -11.4144 -4242.64
   vertex 1.59446 -12.8358 -4242.64
  endloop
 endfacet
 facet normal -0.701132 0.713032 0
  outer loop
   vertex 3.03996 -11.4144 4242.64
   vertex 1.59446 -12.8358 -4242.64
   vertex 1.59446 -12.8358 4242.64
  endloop
 endfacet
 facet normal -0.700097 0.714048 0
  outer loop
   vertex 1.59446 -12.8358 4242.64
   vertex 1.59446 -12.8358 -4242.64
   vertex 0.0397735 -14.3601 -4242.64
  endloop
 endfacet
 facet normal -0.700097 0.714048 0
  outer loop
   vertex 1.59446 -12.8358 4242.64
   vertex 0.0397735 -14.3601 -4242.64
   vertex 0.0397735 -14.3601 4242.64
  endloop
 endfacet
 facet normal -0.700146 0.714 0
  outer loop
   vertex 0.0397735 -14.3601 4242.64
   vertex 0.0397735 -14.3601 -4242.64
   vertex -1.62984 -15.9973 -4242.64
  endloop
 endfacet
 facet normal -0.700146 0.714 0
  outer loop
   vertex 0.0397735 -14.3601 4242.64
   vertex -1.62984 -15.9973 -4242.64
   vertex -1.62984 -15.9973 4242.64
  endloop
 endfacet
 facet normal -0.701287 0.712879 0
  outer loop
   vertex -1.62984 -15.9973 4242.64
   vertex -1.62984 -15.9973 -4242.64
   vertex -3.4202 -17.7585 -4242.64
  endloop
 endfacet
 facet normal -0.701287 0.712879 0
  outer loop
   vertex -1.62984 -15.9973 4242.64
   vertex -3.4202 -17.7585 -4242.64
   vertex -3.4202 -17.7585 4242.64
  endloop
 endfacet
 facet normal -0.70429 0.709912 0
  outer loop
   vertex -3.4202 -17.7585 4242.64
   vertex -3.4202 -17.7585 -4242.64
   vertex -5.33504 -19.6582 -4242.64
  endloop
 endfacet
 facet normal -0.70429 0.709912 0
  outer loop
   vertex -3.4202 -17.7585 4242.64
   vertex -5.33504 -19.6582 -4242.64
   vertex -5.33504 -19.6582 4242.64
  endloop
 endfacet
 facet normal -0.709642 0.704562 0
  outer loop
   vertex -5.33504 -19.6582 4242.64
   vertex -5.33504 -19.6582 -4242.64
   vertex -7.37607 -21.714 -4242.64
  endloop
 endfacet
 facet normal -0.709642 0.704562 0
  outer loop
   vertex -5.33504 -19.6582 4242.64
   vertex -7.37607 -21.714 -4242.64
   vertex -7.37607 -21.714 4242.64
  endloop
 endfacet
 facet normal -0.716297 0.697795 0
  outer loop
   vertex -7.37607 -21.714 4242.64
   vertex -7.37607 -21.714 -4242.64
   vertex -9.54708 -23.9425 -4242.64
  endloop
 endfacet
 facet normal -0.716297 0.697795 0
  outer loop
   vertex -7.37607 -21.714 4242.64
   vertex -9.54708 -23.9425 -4242.64
   vertex -9.54708 -23.9425 4242.64
  endloop
 endfacet
 facet normal -0.726212 0.687471 0
  outer loop
   vertex -9.54708 -23.9425 4242.64
   vertex -9.54708 -23.9425 -4242.64
   vertex -11.8442 -26.3691 -4242.64
  endloop
 endfacet
 facet normal -0.726212 0.687471 0
  outer loop
   vertex -9.54708 -23.9425 4242.64
   vertex -11.8442 -26.3691 -4242.64
   vertex -11.8442 -26.3691 4242.64
  endloop
 endfacet
 facet normal -0.74136 0.671108 0
  outer loop
   vertex -11.8442 -26.3691 4242.64
   vertex -11.8442 -26.3691 -4242.64
   vertex -14.2526 -29.0296 -4242.64
  endloop
 endfacet
 facet normal -0.74136 0.671108 0
  outer loop
   vertex -11.8442 -26.3691 4242.64
   vertex -14.2526 -29.0296 -4242.64
   vertex -14.2526 -29.0296 4242.64
  endloop
 endfacet
 facet normal -0.757763 0.65253 0
  outer loop
   vertex -14.2526 -29.0296 4242.64
   vertex -14.2526 -29.0296 -4242.64
   vertex -16.7676 -31.9502 -4242.64
  endloop
 endfacet
 facet normal -0.757763 0.65253 0
  outer loop
   vertex -14.2526 -29.0296 4242.64
   vertex -16.7676 -31.9502 -4242.64
   vertex -16.7676 -31.9502 4242.64
  endloop
 endfacet
 facet normal -0.779558 0.62633 0
  outer loop
   vertex -16.7676 -31.9502 4242.64
   vertex -16.7676 -31.9502 -4242.64
   vertex -19.3602 -35.177 -4242.64
  endloop
 endfacet
 facet normal -0.779558 0.62633 0
  outer loop
   vertex -16.7676 -31.9502 4242.64
   vertex -19.3602 -35.177 -4242.64
   vertex -19.3602 -35.177 4242.64
  endloop
 endfacet
 facet normal -0.800743 0.599008 0
  outer loop
   vertex -19.3602 -35.177 4242.64
   vertex -19.3602 -35.177 -4242.64
   vertex -22.0232 -38.7369 -4242.64
  endloop
 endfacet
 facet normal -0.800743 0.599008 0
  outer loop
   vertex -19.3602 -35.177 4242.64
   vertex -22.0232 -38.7369 -4242.64
   vertex -22.0232 -38.7369 4242.64
  endloop
 endfacet
 facet normal -0.816746 0.576997 0
  outer loop
   vertex -22.0232 -38.7369 4242.64
   vertex -22.0232 -38.7369 -4242.64
   vertex -24.7782 -42.6367 -4242.64
  endloop
 endfacet
 facet normal -0.816746 0.576997 0
  outer loop
   vertex -22.0232 -38.7369 4242.64
   vertex -24.7782 -42.6367 -4242.64
   vertex -24.7782 -42.6367 4242.64
  endloop
 endfacet
 facet normal -0.830907 0.556411 0
  outer loop
   vertex -24.7782 -42.6367 4242.64
   vertex -24.7782 -42.6367 -4242.64
   vertex -27.6315 -46.8976 -4242.64
  endloop
 endfacet
 facet normal -0.830907 0.556411 0
  outer loop
   vertex -24.7782 -42.6367 4242.64
   vertex -27.6315 -46.8976 -4242.64
   vertex -27.6315 -46.8976 4242.64
  endloop
 endfacet
 facet normal -0.849188 0.528091 0
  outer loop
   vertex -27.6315 -46.8976 4242.64
   vertex -27.6315 -46.8976 -4242.64
   vertex -30.5399 -51.5744 -4242.64
  endloop
 endfacet
 facet normal -0.849188 0.528091 0
  outer loop
   vertex -27.6315 -46.8976 4242.64
   vertex -30.5399 -51.5744 -4242.64
   vertex -30.5399 -51.5744 4242.64
  endloop
 endfacet
 facet normal -0.870267 0.49258 0
  outer loop
   vertex -30.5399 -51.5744 4242.64
   vertex -30.5399 -51.5744 -4242.64
   vertex -33.2527 -56.3672 -4242.64
  endloop
 endfacet
 facet normal -0.870267 0.49258 0
  outer loop
   vertex -30.5399 -51.5744 4242.64
   vertex -33.2527 -56.3672 -4242.64
   vertex -33.2527 -56.3672 4242.64
  endloop
 endfacet
 facet normal -0.890832 0.454333 0
  outer loop
   vertex -33.2527 -56.3672 4242.64
   vertex -33.2527 -56.3672 -4242.64
   vertex -35.5652 -60.9014 -4242.64
  endloop
 endfacet
 facet normal -0.890832 0.454333 0
  outer loop
   vertex -33.2527 -56.3672 4242.64
   vertex -35.5652 -60.9014 -4242.64
   vertex -35.5652 -60.9014 4242.64
  endloop
 endfacet
 facet normal -0.911162 0.412049 0
  outer loop
   vertex -35.5652 -60.9014 4242.64
   vertex -35.5652 -60.9014 -4242.64
   vertex -37.5035 -65.1875 -4242.64
  endloop
 endfacet
 facet normal -0.911162 0.412049 0
  outer loop
   vertex -35.5652 -60.9014 4242.64
   vertex -37.5035 -65.1875 -4242.64
   vertex -37.5035 -65.1875 4242.64
  endloop
 endfacet
 facet normal -0.931067 0.364847 0
  outer loop
   vertex -37.5035 -65.1875 4242.64
   vertex -37.5035 -65.1875 -4242.64
   vertex -39.0896 -69.2354 -4242.64
  endloop
 endfacet
 facet normal -0.931067 0.364847 0
  outer loop
   vertex -37.5035 -65.1875 4242.64
   vertex -39.0896 -69.2354 -4242.64
   vertex -39.0896 -69.2354 4242.64
  endloop
 endfacet
 facet normal -0.947594 0.319478 0
  outer loop
   vertex -39.0896 -69.2354 4242.64
   vertex -39.0896 -69.2354 -4242.64
   vertex -40.3733 -73.0429 -4242.64
  endloop
 endfacet
 facet normal -0.947594 0.319478 0
  outer loop
   vertex -39.0896 -69.2354 4242.64
   vertex -40.3733 -73.0429 -4242.64
   vertex -40.3733 -73.0429 4242.64
  endloop
 endfacet
 facet normal -0.960376 0.278708 0
  outer loop
   vertex -40.3733 -73.0429 4242.64
   vertex -40.3733 -73.0429 -4242.64
   vertex -41.4084 -76.6095 -4242.64
  endloop
 endfacet
 facet normal -0.960376 0.278708 0
  outer loop
   vertex -40.3733 -73.0429 4242.64
   vertex -41.4084 -76.6095 -4242.64
   vertex -41.4084 -76.6095 4242.64
  endloop
 endfacet
 facet normal -0.972387 0.233373 0
  outer loop
   vertex -41.4084 -76.6095 4242.64
   vertex -41.4084 -76.6095 -4242.64
   vertex -42.2093 -79.9468 -4242.64
  endloop
 endfacet
 facet normal -0.972387 0.233373 0
  outer loop
   vertex -41.4084 -76.6095 4242.64
   vertex -42.2093 -79.9468 -4242.64
   vertex -42.2093 -79.9468 4242.64
  endloop
 endfacet
 facet normal -0.98209 0.188411 0
  outer loop
   vertex -42.2093 -79.9468 4242.64
   vertex -42.2093 -79.9468 -4242.64
   vertex -42.807 -83.062 -4242.64
  endloop
 endfacet
 facet normal -0.98209 0.188411 0
  outer loop
   vertex -42.2093 -79.9468 4242.64
   vertex -42.807 -83.062 -4242.64
   vertex -42.807 -83.062 4242.64
  endloop
 endfacet
 facet normal -0.992086 0.125562 0
  outer loop
   vertex -42.807 -83.062 4242.64
   vertex -42.807 -83.062 -4242.64
   vertex -43.175 -85.9699 -4242.64
  endloop
 endfacet
 facet normal -0.992086 0.125562 0
  outer loop
   vertex -42.807 -83.062 4242.64
   vertex -43.175 -85.9699 -4242.64
   vertex -43.175 -85.9699 4242.64
  endloop
 endfacet
 facet normal -0.998934 0.0461672 0
  outer loop
   vertex -43.175 -85.9699 4242.64
   vertex -43.175 -85.9699 -4242.64
   vertex -43.3001 -88.6762 -4242.64
  endloop
 endfacet
 facet normal -0.998934 0.0461672 0
  outer loop
   vertex -43.175 -85.9699 4242.64
   vertex -43.3001 -88.6762 -4242.64
   vertex -43.3001 -88.6762 4242.64
  endloop
 endfacet
 facet normal -0.999752 -0.0222566 0
  outer loop
   vertex -43.3001 -88.6762 4242.64
   vertex -43.3001 -88.6762 -4242.64
   vertex -43.2444 -91.1795 -4242.64
  endloop
 endfacet
 facet normal -0.999752 -0.0222566 0
  outer loop
   vertex -43.3001 -88.6762 4242.64
   vertex -43.2444 -91.1795 -4242.64
   vertex -43.2444 -91.1795 4242.64
  endloop
 endfacet
 facet normal -0.995574 -0.0939821 0
  outer loop
   vertex -43.2444 -91.1795 4242.64
   vertex -43.2444 -91.1795 -4242.64
   vertex -43.0269 -93.4831 -4242.64
  endloop
 endfacet
 facet normal -0.995574 -0.0939821 0
  outer loop
   vertex -43.2444 -91.1795 4242.64
   vertex -43.0269 -93.4831 -4242.64
   vertex -43.0269 -93.4831 4242.64
  endloop
 endfacet
 facet normal -0.983022 -0.18349 0
  outer loop
   vertex -43.0269 -93.4831 4242.64
   vertex -43.0269 -93.4831 -4242.64
   vertex -42.6345 -95.5852 -4242.64
  endloop
 endfacet
 facet normal -0.983022 -0.18349 0
  outer loop
   vertex -43.0269 -93.4831 4242.64
   vertex -42.6345 -95.5852 -4242.64
   vertex -42.6345 -95.5852 4242.64
  endloop
 endfacet
 facet normal -0.962465 -0.271405 0
  outer loop
   vertex -42.6345 -95.5852 4242.64
   vertex -42.6345 -95.5852 -4242.64
   vertex -42.0981 -97.4875 -4242.64
  endloop
 endfacet
 facet normal -0.962465 -0.271405 0
  outer loop
   vertex -42.6345 -95.5852 4242.64
   vertex -42.0981 -97.4875 -4242.64
   vertex -42.0981 -97.4875 4242.64
  endloop
 endfacet
 facet normal -0.939175 -0.343438 0
  outer loop
   vertex -42.0981 -97.4875 4242.64
   vertex -42.0981 -97.4875 -4242.64
   vertex -41.4707 -99.2032 -4242.64
  endloop
 endfacet
 facet normal -0.939175 -0.343438 0
  outer loop
   vertex -42.0981 -97.4875 4242.64
   vertex -41.4707 -99.2032 -4242.64
   vertex -41.4707 -99.2032 4242.64
  endloop
 endfacet
 facet normal -0.900059 -0.435767 0
  outer loop
   vertex -41.4707 -99.2032 4242.64
   vertex -41.4707 -99.2032 -4242.64
   vertex -40.7353 -100.722 -4242.64
  endloop
 endfacet
 facet normal -0.900059 -0.435767 0
  outer loop
   vertex -41.4707 -99.2032 4242.64
   vertex -40.7353 -100.722 -4242.64
   vertex -40.7353 -100.722 4242.64
  endloop
 endfacet
 facet normal -0.851417 -0.524489 0
  outer loop
   vertex -40.7353 -100.722 4242.64
   vertex -40.7353 -100.722 -4242.64
   vertex -39.9169 -102.051 -4242.64
  endloop
 endfacet
 facet normal -0.851417 -0.524489 0
  outer loop
   vertex -40.7353 -100.722 4242.64
   vertex -39.9169 -102.051 -4242.64
   vertex -39.9169 -102.051 4242.64
  endloop
 endfacet
 facet normal -0.81212 -0.58349 0
  outer loop
   vertex -39.9169 -102.051 4242.64
   vertex -39.9169 -102.051 -4242.64
   vertex -39.0754 -103.222 -4242.64
  endloop
 endfacet
 facet normal -0.81212 -0.58349 0
  outer loop
   vertex -39.9169 -102.051 4242.64
   vertex -39.0754 -103.222 -4242.64
   vertex -39.0754 -103.222 4242.64
  endloop
 endfacet
 facet normal -0.748896 -0.662687 0
  outer loop
   vertex -39.0754 -103.222 4242.64
   vertex -39.0754 -103.222 -4242.64
   vertex -38.1925 -104.22 -4242.64
  endloop
 endfacet
 facet normal -0.748896 -0.662687 0
  outer loop
   vertex -39.0754 -103.222 4242.64
   vertex -38.1925 -104.22 -4242.64
   vertex -38.1925 -104.22 4242.64
  endloop
 endfacet
 facet normal -0.659787 -0.751453 0
  outer loop
   vertex -38.1925 -104.22 4242.64
   vertex -38.1925 -104.22 -4242.64
   vertex -37.2673 -105.032 -4242.64
  endloop
 endfacet
 facet normal -0.659787 -0.751453 0
  outer loop
   vertex -38.1925 -104.22 4242.64
   vertex -37.2673 -105.032 -4242.64
   vertex -37.2673 -105.032 4242.64
  endloop
 endfacet
 facet normal -0.583942 -0.811795 0
  outer loop
   vertex -37.2673 -105.032 4242.64
   vertex -37.2673 -105.032 -4242.64
   vertex -36.343 -105.697 -4242.64
  endloop
 endfacet
 facet normal -0.583942 -0.811795 0
  outer loop
   vertex -37.2673 -105.032 4242.64
   vertex -36.343 -105.697 -4242.64
   vertex -36.343 -105.697 4242.64
  endloop
 endfacet
 facet normal -0.538332 -0.842733 0
  outer loop
   vertex -36.343 -105.697 4242.64
   vertex -36.343 -105.697 -4242.64
   vertex -35.4562 -106.263 -4242.64
  endloop
 endfacet
 facet normal -0.538332 -0.842733 0
  outer loop
   vertex -36.343 -105.697 4242.64
   vertex -35.4562 -106.263 -4242.64
   vertex -35.4562 -106.263 4242.64
  endloop
 endfacet
 facet normal -0.469864 -0.882739 0
  outer loop
   vertex -35.4562 -106.263 4242.64
   vertex -35.4562 -106.263 -4242.64
   vertex -34.5978 -106.72 -4242.64
  endloop
 endfacet
 facet normal -0.469864 -0.882739 0
  outer loop
   vertex -35.4562 -106.263 4242.64
   vertex -34.5978 -106.72 -4242.64
   vertex -34.5978 -106.72 4242.64
  endloop
 endfacet
 facet normal -0.399628 -0.916677 0
  outer loop
   vertex -34.5978 -106.72 4242.64
   vertex -34.5978 -106.72 -4242.64
   vertex -33.7739 -107.079 -4242.64
  endloop
 endfacet
 facet normal -0.399628 -0.916677 0
  outer loop
   vertex -34.5978 -106.72 4242.64
   vertex -33.7739 -107.079 -4242.64
   vertex -33.7739 -107.079 4242.64
  endloop
 endfacet
 facet normal -0.366358 -0.930474 0
  outer loop
   vertex -33.7739 -107.079 4242.64
   vertex -33.7739 -107.079 -4242.64
   vertex -33.0009 -107.384 -4242.64
  endloop
 endfacet
 facet normal -0.366358 -0.930474 0
  outer loop
   vertex -33.7739 -107.079 4242.64
   vertex -33.0009 -107.384 -4242.64
   vertex -33.0009 -107.384 4242.64
  endloop
 endfacet
 facet normal -0.374503 -0.927226 0
  outer loop
   vertex -33.0009 -107.384 4242.64
   vertex -33.0009 -107.384 -4242.64
   vertex -32.2889 -107.671 -4242.64
  endloop
 endfacet
 facet normal -0.374503 -0.927226 0
  outer loop
   vertex -33.0009 -107.384 4242.64
   vertex -32.2889 -107.671 -4242.64
   vertex -32.2889 -107.671 4242.64
  endloop
 endfacet
 facet normal -0.288089 -0.957604 0
  outer loop
   vertex -32.2889 -107.671 4242.64
   vertex -32.2889 -107.671 -4242.64
   vertex -31.6099 -107.876 -4242.64
  endloop
 endfacet
 facet normal -0.288089 -0.957604 0
  outer loop
   vertex -32.2889 -107.671 4242.64
   vertex -31.6099 -107.876 -4242.64
   vertex -31.6099 -107.876 4242.64
  endloop
 endfacet
 facet normal -0.188301 -0.982111 0
  outer loop
   vertex -31.6099 -107.876 4242.64
   vertex -31.6099 -107.876 -4242.64
   vertex -30.9658 -107.999 -4242.64
  endloop
 endfacet
 facet normal -0.188301 -0.982111 0
  outer loop
   vertex -31.6099 -107.876 4242.64
   vertex -30.9658 -107.999 -4242.64
   vertex -30.9658 -107.999 4242.64
  endloop
 endfacet
 facet normal -0.194585 -0.980886 0
  outer loop
   vertex -30.9658 -107.999 4242.64
   vertex -30.9658 -107.999 -4242.64
   vertex -30.3713 -108.117 -4242.64
  endloop
 endfacet
 facet normal -0.194585 -0.980886 0
  outer loop
   vertex -30.9658 -107.999 4242.64
   vertex -30.3713 -108.117 -4242.64
   vertex -30.3713 -108.117 4242.64
  endloop
 endfacet
 facet normal -0.221786 -0.975095 0
  outer loop
   vertex -30.3713 -108.117 4242.64
   vertex -30.3713 -108.117 -4242.64
   vertex -29.825 -108.241 -4242.64
  endloop
 endfacet
 facet normal -0.221786 -0.975095 0
  outer loop
   vertex -30.3713 -108.117 4242.64
   vertex -29.825 -108.241 -4242.64
   vertex -29.825 -108.241 4242.64
  endloop
 endfacet
 facet normal -0.206186 -0.978513 0
  outer loop
   vertex -29.825 -108.241 4242.64
   vertex -29.825 -108.241 -4242.64
   vertex -29.3184 -108.348 -4242.64
  endloop
 endfacet
 facet normal -0.206186 -0.978513 0
  outer loop
   vertex -29.825 -108.241 4242.64
   vertex -29.3184 -108.348 -4242.64
   vertex -29.3184 -108.348 4242.64
  endloop
 endfacet
 facet normal -0.116429 -0.993199 0
  outer loop
   vertex -29.3184 -108.348 4242.64
   vertex -29.3184 -108.348 -4242.64
   vertex -28.8433 -108.404 -4242.64
  endloop
 endfacet
 facet normal -0.116429 -0.993199 0
  outer loop
   vertex -29.3184 -108.348 4242.64
   vertex -28.8433 -108.404 -4242.64
   vertex -28.8433 -108.404 4242.64
  endloop
 endfacet
 facet normal -0.0588411 -0.998267 0
  outer loop
   vertex -28.8433 -108.404 4242.64
   vertex -28.8433 -108.404 -4242.64
   vertex -28.4018 -108.43 -4242.64
  endloop
 endfacet
 facet normal -0.0588411 -0.998267 0
  outer loop
   vertex -28.8433 -108.404 4242.64
   vertex -28.4018 -108.43 -4242.64
   vertex -28.4018 -108.43 4242.64
  endloop
 endfacet
 facet normal -0.0561432 -0.998423 0
  outer loop
   vertex -28.4018 -108.43 4242.64
   vertex -28.4018 -108.43 -4242.64
   vertex -27.9937 -108.453 -4242.64
  endloop
 endfacet
 facet normal -0.0561432 -0.998423 0
  outer loop
   vertex -28.4018 -108.43 4242.64
   vertex -27.9937 -108.453 -4242.64
   vertex -27.9937 -108.453 4242.64
  endloop
 endfacet
 facet normal -0.0569302 -0.998378 0
  outer loop
   vertex -27.9937 -108.453 4242.64
   vertex -27.9937 -108.453 -4242.64
   vertex -27.6165 -108.474 -4242.64
  endloop
 endfacet
 facet normal -0.0569302 -0.998378 0
  outer loop
   vertex -27.9937 -108.453 4242.64
   vertex -27.6165 -108.474 -4242.64
   vertex -27.6165 -108.474 4242.64
  endloop
 endfacet
 facet normal -0.0561356 -0.998423 0
  outer loop
   vertex -27.6165 -108.474 4242.64
   vertex -27.6165 -108.474 -4242.64
   vertex -27.2679 -108.494 -4242.64
  endloop
 endfacet
 facet normal -0.0561356 -0.998423 0
  outer loop
   vertex -27.6165 -108.474 4242.64
   vertex -27.2679 -108.494 -4242.64
   vertex -27.2679 -108.494 4242.64
  endloop
 endfacet
 facet normal -0.0561283 -0.998424 0
  outer loop
   vertex -27.2679 -108.494 4242.64
   vertex -27.2679 -108.494 -4242.64
   vertex -26.9457 -108.512 -4242.64
  endloop
 endfacet
 facet normal -0.0561283 -0.998424 0
  outer loop
   vertex -27.2679 -108.494 4242.64
   vertex -26.9457 -108.512 -4242.64
   vertex -26.9457 -108.512 4242.64
  endloop
 endfacet
 facet normal -0.0563049 -0.998414 0
  outer loop
   vertex -26.9457 -108.512 4242.64
   vertex -26.9457 -108.512 -4242.64
   vertex -26.6479 -108.529 -4242.64
  endloop
 endfacet
 facet normal -0.0563049 -0.998414 0
  outer loop
   vertex -26.9457 -108.512 4242.64
   vertex -26.6479 -108.529 -4242.64
   vertex -26.6479 -108.529 4242.64
  endloop
 endfacet
 facet normal -0.0562997 -0.998414 0
  outer loop
   vertex -26.6479 -108.529 4242.64
   vertex -26.6479 -108.529 -4242.64
   vertex -26.3727 -108.544 -4242.64
  endloop
 endfacet
 facet normal -0.0562997 -0.998414 0
  outer loop
   vertex -26.6479 -108.529 4242.64
   vertex -26.3727 -108.544 -4242.64
   vertex -26.3727 -108.544 4242.64
  endloop
 endfacet
 facet normal -0.0562144 -0.998419 0
  outer loop
   vertex -26.3727 -108.544 4242.64
   vertex -26.3727 -108.544 -4242.64
   vertex -26.1184 -108.559 -4242.64
  endloop
 endfacet
 facet normal -0.0562144 -0.998419 0
  outer loop
   vertex -26.3727 -108.544 4242.64
   vertex -26.1184 -108.559 -4242.64
   vertex -26.1184 -108.559 4242.64
  endloop
 endfacet
 facet normal 0.820162 0.572131 0
  outer loop
   vertex -83.0269 -108.189 4242.64
   vertex -82.753 -108.581 4242.64
   vertex -82.753 -108.581 -4242.64
  endloop
 endfacet
 facet normal 0.820162 0.572131 0
  outer loop
   vertex -83.0269 -108.189 4242.64
   vertex -82.753 -108.581 -4242.64
   vertex -83.0269 -108.189 -4242.64
  endloop
 endfacet
 facet normal 0.827112 0.562037 -0
  outer loop
   vertex -83.0269 -108.189 4242.64
   vertex -83.0269 -108.189 -4242.64
   vertex -83.3135 -107.767 -4242.64
  endloop
 endfacet
 facet normal 0.827112 0.562037 -0
  outer loop
   vertex -83.0269 -108.189 4242.64
   vertex -83.3135 -107.767 -4242.64
   vertex -83.3135 -107.767 4242.64
  endloop
 endfacet
 facet normal 0.873733 0.486405 -0
  outer loop
   vertex -83.3135 -107.767 4242.64
   vertex -83.3135 -107.767 -4242.64
   vertex -83.5776 -107.293 -4242.64
  endloop
 endfacet
 facet normal 0.873733 0.486405 -0
  outer loop
   vertex -83.3135 -107.767 4242.64
   vertex -83.5776 -107.293 -4242.64
   vertex -83.5776 -107.293 4242.64
  endloop
 endfacet
 facet normal 0.880461 0.474119 -0
  outer loop
   vertex -83.5776 -107.293 4242.64
   vertex -83.5776 -107.293 -4242.64
   vertex -83.8518 -106.783 -4242.64
  endloop
 endfacet
 facet normal 0.880461 0.474119 -0
  outer loop
   vertex -83.5776 -107.293 4242.64
   vertex -83.8518 -106.783 -4242.64
   vertex -83.8518 -106.783 4242.64
  endloop
 endfacet
 facet normal 0.902647 0.430382 -0
  outer loop
   vertex -83.8518 -106.783 4242.64
   vertex -83.8518 -106.783 -4242.64
   vertex -84.1169 -106.227 -4242.64
  endloop
 endfacet
 facet normal 0.902647 0.430382 -0
  outer loop
   vertex -83.8518 -106.783 4242.64
   vertex -84.1169 -106.227 -4242.64
   vertex -84.1169 -106.227 4242.64
  endloop
 endfacet
 facet normal 0.919906 0.392139 -0
  outer loop
   vertex -84.1169 -106.227 4242.64
   vertex -84.1169 -106.227 -4242.64
   vertex -84.3741 -105.624 -4242.64
  endloop
 endfacet
 facet normal 0.919906 0.392139 -0
  outer loop
   vertex -84.1169 -106.227 4242.64
   vertex -84.3741 -105.624 -4242.64
   vertex -84.3741 -105.624 4242.64
  endloop
 endfacet
 facet normal 0.938038 0.346533 -0
  outer loop
   vertex -84.3741 -105.624 4242.64
   vertex -84.3741 -105.624 -4242.64
   vertex -84.6162 -104.969 -4242.64
  endloop
 endfacet
 facet normal 0.938038 0.346533 -0
  outer loop
   vertex -84.3741 -105.624 4242.64
   vertex -84.6162 -104.969 -4242.64
   vertex -84.6162 -104.969 4242.64
  endloop
 endfacet
 facet normal 0.956203 0.292705 -0
  outer loop
   vertex -84.6162 -104.969 4242.64
   vertex -84.6162 -104.969 -4242.64
   vertex -84.8339 -104.257 -4242.64
  endloop
 endfacet
 facet normal 0.956203 0.292705 -0
  outer loop
   vertex -84.6162 -104.969 4242.64
   vertex -84.8339 -104.257 -4242.64
   vertex -84.8339 -104.257 4242.64
  endloop
 endfacet
 facet normal 0.97718 0.212411 -0
  outer loop
   vertex -84.8339 -104.257 4242.64
   vertex -84.8339 -104.257 -4242.64
   vertex -85.0022 -103.483 -4242.64
  endloop
 endfacet
 facet normal 0.97718 0.212411 -0
  outer loop
   vertex -84.8339 -104.257 4242.64
   vertex -85.0022 -103.483 -4242.64
   vertex -85.0022 -103.483 4242.64
  endloop
 endfacet
 facet normal 0.984655 0.17451 -0
  outer loop
   vertex -85.0022 -103.483 4242.64
   vertex -85.0022 -103.483 -4242.64
   vertex -85.1495 -102.652 -4242.64
  endloop
 endfacet
 facet normal 0.984655 0.17451 -0
  outer loop
   vertex -85.0022 -103.483 4242.64
   vertex -85.1495 -102.652 -4242.64
   vertex -85.1495 -102.652 4242.64
  endloop
 endfacet
 facet normal 0.990902 0.134584 -0
  outer loop
   vertex -85.1495 -102.652 4242.64
   vertex -85.1495 -102.652 -4242.64
   vertex -85.2704 -101.762 -4242.64
  endloop
 endfacet
 facet normal 0.990902 0.134584 -0
  outer loop
   vertex -85.1495 -102.652 4242.64
   vertex -85.2704 -101.762 -4242.64
   vertex -85.2704 -101.762 4242.64
  endloop
 endfacet
 facet normal 0.997652 0.0684902 -0
  outer loop
   vertex -85.2704 -101.762 4242.64
   vertex -85.2704 -101.762 -4242.64
   vertex -85.3359 -100.807 -4242.64
  endloop
 endfacet
 facet normal 0.997652 0.0684902 -0
  outer loop
   vertex -85.2704 -101.762 4242.64
   vertex -85.3359 -100.807 -4242.64
   vertex -85.3359 -100.807 4242.64
  endloop
 endfacet
 facet normal 0.999748 0.0224472 -0
  outer loop
   vertex -85.3359 -100.807 4242.64
   vertex -85.3359 -100.807 -4242.64
   vertex -85.3588 -99.788 -4242.64
  endloop
 endfacet
 facet normal 0.999748 0.0224472 -0
  outer loop
   vertex -85.3359 -100.807 4242.64
   vertex -85.3588 -99.788 -4242.64
   vertex -85.3588 -99.788 4242.64
  endloop
 endfacet
 facet normal 0.999345 -0.0361899 0
  outer loop
   vertex -85.3588 -99.788 4242.64
   vertex -85.3588 -99.788 -4242.64
   vertex -85.3195 -98.7032 -4242.64
  endloop
 endfacet
 facet normal 0.999345 -0.0361899 0
  outer loop
   vertex -85.3588 -99.788 4242.64
   vertex -85.3195 -98.7032 -4242.64
   vertex -85.3195 -98.7032 4242.64
  endloop
 endfacet
 facet normal 0.994591 -0.103866 0
  outer loop
   vertex -85.3195 -98.7032 4242.64
   vertex -85.3195 -98.7032 -4242.64
   vertex -85.1995 -97.5535 -4242.64
  endloop
 endfacet
 facet normal 0.994591 -0.103866 0
  outer loop
   vertex -85.3195 -98.7032 4242.64
   vertex -85.1995 -97.5535 -4242.64
   vertex -85.1995 -97.5535 4242.64
  endloop
 endfacet
 facet normal 0.985881 -0.167446 0
  outer loop
   vertex -85.1995 -97.5535 4242.64
   vertex -85.1995 -97.5535 -4242.64
   vertex -84.9933 -96.3396 -4242.64
  endloop
 endfacet
 facet normal 0.985881 -0.167446 0
  outer loop
   vertex -85.1995 -97.5535 4242.64
   vertex -84.9933 -96.3396 -4242.64
   vertex -84.9933 -96.3396 4242.64
  endloop
 endfacet
 facet normal 0.974499 -0.224392 0
  outer loop
   vertex -84.9933 -96.3396 4242.64
   vertex -84.9933 -96.3396 -4242.64
   vertex -84.6991 -95.0618 -4242.64
  endloop
 endfacet
 facet normal 0.974499 -0.224392 0
  outer loop
   vertex -84.9933 -96.3396 4242.64
   vertex -84.6991 -95.0618 -4242.64
   vertex -84.6991 -95.0618 4242.64
  endloop
 endfacet
 facet normal 0.960492 -0.278306 0
  outer loop
   vertex -84.6991 -95.0618 4242.64
   vertex -84.6991 -95.0618 -4242.64
   vertex -84.3104 -93.7205 -4242.64
  endloop
 endfacet
 facet normal 0.960492 -0.278306 0
  outer loop
   vertex -84.6991 -95.0618 4242.64
   vertex -84.3104 -93.7205 -4242.64
   vertex -84.3104 -93.7205 4242.64
  endloop
 endfacet
 facet normal 0.946787 -0.321861 0
  outer loop
   vertex -84.3104 -93.7205 4242.64
   vertex -84.3104 -93.7205 -4242.64
   vertex -83.8317 -92.3123 -4242.64
  endloop
 endfacet
 facet normal 0.946787 -0.321861 0
  outer loop
   vertex -84.3104 -93.7205 4242.64
   vertex -83.8317 -92.3123 -4242.64
   vertex -83.8317 -92.3123 4242.64
  endloop
 endfacet
 facet normal 0.931318 -0.364206 0
  outer loop
   vertex -83.8317 -92.3123 4242.64
   vertex -83.8317 -92.3123 -4242.64
   vertex -83.2548 -90.837 -4242.64
  endloop
 endfacet
 facet normal 0.931318 -0.364206 0
  outer loop
   vertex -83.8317 -92.3123 4242.64
   vertex -83.2548 -90.837 -4242.64
   vertex -83.2548 -90.837 4242.64
  endloop
 endfacet
 facet normal 0.915492 -0.402336 0
  outer loop
   vertex -83.2548 -90.837 4242.64
   vertex -83.2548 -90.837 -4242.64
   vertex -82.576 -89.2926 -4242.64
  endloop
 endfacet
 facet normal 0.915492 -0.402336 0
  outer loop
   vertex -83.2548 -90.837 4242.64
   vertex -82.576 -89.2926 -4242.64
   vertex -82.576 -89.2926 4242.64
  endloop
 endfacet
 facet normal 0.901656 -0.432454 0
  outer loop
   vertex -82.576 -89.2926 4242.64
   vertex -82.576 -89.2926 -4242.64
   vertex -81.799 -87.6726 -4242.64
  endloop
 endfacet
 facet normal 0.901656 -0.432454 0
  outer loop
   vertex -82.576 -89.2926 4242.64
   vertex -81.799 -87.6726 -4242.64
   vertex -81.799 -87.6726 4242.64
  endloop
 endfacet
 facet normal 0.882407 -0.470486 0
  outer loop
   vertex -81.799 -87.6726 4242.64
   vertex -81.799 -87.6726 -4242.64
   vertex -80.8988 -85.9842 -4242.64
  endloop
 endfacet
 facet normal 0.882407 -0.470486 0
  outer loop
   vertex -81.799 -87.6726 4242.64
   vertex -80.8988 -85.9842 -4242.64
   vertex -80.8988 -85.9842 4242.64
  endloop
 endfacet
 facet normal 0.863613 -0.504155 0
  outer loop
   vertex -80.8988 -85.9842 4242.64
   vertex -80.8988 -85.9842 -4242.64
   vertex -79.8714 -84.2242 -4242.64
  endloop
 endfacet
 facet normal 0.863613 -0.504155 0
  outer loop
   vertex -80.8988 -85.9842 4242.64
   vertex -79.8714 -84.2242 -4242.64
   vertex -79.8714 -84.2242 4242.64
  endloop
 endfacet
 facet normal 0.847971 -0.530043 0
  outer loop
   vertex -79.8714 -84.2242 4242.64
   vertex -79.8714 -84.2242 -4242.64
   vertex -78.721 -82.3838 -4242.64
  endloop
 endfacet
 facet normal 0.847971 -0.530043 0
  outer loop
   vertex -79.8714 -84.2242 4242.64
   vertex -78.721 -82.3838 -4242.64
   vertex -78.721 -82.3838 4242.64
  endloop
 endfacet
 facet normal 0.833561 -0.552427 0
  outer loop
   vertex -78.721 -82.3838 4242.64
   vertex -78.721 -82.3838 -4242.64
   vertex -77.4441 -80.4571 -4242.64
  endloop
 endfacet
 facet normal 0.833561 -0.552427 0
  outer loop
   vertex -78.721 -82.3838 4242.64
   vertex -77.4441 -80.4571 -4242.64
   vertex -77.4441 -80.4571 4242.64
  endloop
 endfacet
 facet normal 0.819318 -0.57334 0
  outer loop
   vertex -77.4441 -80.4571 4242.64
   vertex -77.4441 -80.4571 -4242.64
   vertex -76.0327 -78.4402 -4242.64
  endloop
 endfacet
 facet normal 0.819318 -0.57334 0
  outer loop
   vertex -77.4441 -80.4571 4242.64
   vertex -76.0327 -78.4402 -4242.64
   vertex -76.0327 -78.4402 4242.64
  endloop
 endfacet
 facet normal 0.803365 -0.595487 0
  outer loop
   vertex -76.0327 -78.4402 4242.64
   vertex -76.0327 -78.4402 -4242.64
   vertex -74.4716 -76.334 -4242.64
  endloop
 endfacet
 facet normal 0.803365 -0.595487 0
  outer loop
   vertex -76.0327 -78.4402 4242.64
   vertex -74.4716 -76.334 -4242.64
   vertex -74.4716 -76.334 4242.64
  endloop
 endfacet
 facet normal 0.786369 -0.617757 0
  outer loop
   vertex -74.4716 -76.334 4242.64
   vertex -74.4716 -76.334 -4242.64
   vertex -72.7467 -74.1384 -4242.64
  endloop
 endfacet
 facet normal 0.786369 -0.617757 0
  outer loop
   vertex -74.4716 -76.334 4242.64
   vertex -72.7467 -74.1384 -4242.64
   vertex -72.7467 -74.1384 4242.64
  endloop
 endfacet
 facet normal 0.769958 -0.638094 0
  outer loop
   vertex -72.7467 -74.1384 4242.64
   vertex -72.7467 -74.1384 -4242.64
   vertex -70.8493 -71.8489 -4242.64
  endloop
 endfacet
 facet normal 0.769958 -0.638094 0
  outer loop
   vertex -72.7467 -74.1384 4242.64
   vertex -70.8493 -71.8489 -4242.64
   vertex -70.8493 -71.8489 4242.64
  endloop
 endfacet
 facet normal 0.755185 -0.655511 0
  outer loop
   vertex -70.8493 -71.8489 4242.64
   vertex -70.8493 -71.8489 -4242.64
   vertex -68.7733 -69.4573 -4242.64
  endloop
 endfacet
 facet normal 0.755185 -0.655511 0
  outer loop
   vertex -70.8493 -71.8489 4242.64
   vertex -68.7733 -69.4573 -4242.64
   vertex -68.7733 -69.4573 4242.64
  endloop
 endfacet
 facet normal 0.742794 -0.66952 0
  outer loop
   vertex -68.7733 -69.4573 4242.64
   vertex -68.7733 -69.4573 -4242.64
   vertex -66.5152 -66.952 -4242.64
  endloop
 endfacet
 facet normal 0.742794 -0.66952 0
  outer loop
   vertex -68.7733 -69.4573 4242.64
   vertex -66.5152 -66.952 -4242.64
   vertex -66.5152 -66.952 4242.64
  endloop
 endfacet
 facet normal 0.732913 -0.680323 0
  outer loop
   vertex -66.5152 -66.952 4242.64
   vertex -66.5152 -66.952 -4242.64
   vertex -64.0715 -64.3193 -4242.64
  endloop
 endfacet
 facet normal 0.732913 -0.680323 0
  outer loop
   vertex -66.5152 -66.952 4242.64
   vertex -64.0715 -64.3193 -4242.64
   vertex -64.0715 -64.3193 4242.64
  endloop
 endfacet
 facet normal 0.7216 -0.69231 0
  outer loop
   vertex -64.0715 -64.3193 4242.64
   vertex -64.0715 -64.3193 -4242.64
   vertex -61.423 -61.5589 -4242.64
  endloop
 endfacet
 facet normal 0.7216 -0.69231 0
  outer loop
   vertex -64.0715 -64.3193 4242.64
   vertex -61.423 -61.5589 -4242.64
   vertex -61.423 -61.5589 4242.64
  endloop
 endfacet
 facet normal 0.708304 -0.705907 0
  outer loop
   vertex -61.423 -61.5589 4242.64
   vertex -61.423 -61.5589 -4242.64
   vertex -58.5471 -58.6732 -4242.64
  endloop
 endfacet
 facet normal 0.708304 -0.705907 0
  outer loop
   vertex -61.423 -61.5589 4242.64
   vertex -58.5471 -58.6732 -4242.64
   vertex -58.5471 -58.6732 4242.64
  endloop
 endfacet
 facet normal 0.695407 -0.718616 0
  outer loop
   vertex -58.5471 -58.6732 4242.64
   vertex -58.5471 -58.6732 -4242.64
   vertex -55.429 -55.6558 -4242.64
  endloop
 endfacet
 facet normal 0.695407 -0.718616 0
  outer loop
   vertex -58.5471 -58.6732 4242.64
   vertex -55.429 -55.6558 -4242.64
   vertex -55.429 -55.6558 4242.64
  endloop
 endfacet
 facet normal 0.684611 -0.728909 0
  outer loop
   vertex -55.429 -55.6558 4242.64
   vertex -55.429 -55.6558 -4242.64
   vertex -52.0607 -52.4922 -4242.64
  endloop
 endfacet
 facet normal 0.684611 -0.728909 0
  outer loop
   vertex -55.429 -55.6558 4242.64
   vertex -52.0607 -52.4922 -4242.64
   vertex -52.0607 -52.4922 4242.64
  endloop
 endfacet
 facet normal 0.676526 -0.736419 0
  outer loop
   vertex -52.0607 -52.4922 4242.64
   vertex -52.0607 -52.4922 -4242.64
   vertex -48.4365 -49.1628 -4242.64
  endloop
 endfacet
 facet normal 0.676526 -0.736419 0
  outer loop
   vertex -52.0607 -52.4922 4242.64
   vertex -48.4365 -49.1628 -4242.64
   vertex -48.4365 -49.1628 4242.64
  endloop
 endfacet
 facet normal 0.669966 -0.742392 0
  outer loop
   vertex -48.4365 -49.1628 4242.64
   vertex -48.4365 -49.1628 -4242.64
   vertex -44.5454 -45.6513 -4242.64
  endloop
 endfacet
 facet normal 0.669966 -0.742392 0
  outer loop
   vertex -48.4365 -49.1628 4242.64
   vertex -44.5454 -45.6513 -4242.64
   vertex -44.5454 -45.6513 4242.64
  endloop
 endfacet
 facet normal 0.662881 -0.748725 0
  outer loop
   vertex -44.5454 -45.6513 4242.64
   vertex -44.5454 -45.6513 -4242.64
   vertex -40.3661 -41.9511 -4242.64
  endloop
 endfacet
 facet normal 0.662881 -0.748725 0
  outer loop
   vertex -44.5454 -45.6513 4242.64
   vertex -40.3661 -41.9511 -4242.64
   vertex -40.3661 -41.9511 4242.64
  endloop
 endfacet
 facet normal 0.652175 -0.758068 0
  outer loop
   vertex -40.3661 -41.9511 4242.64
   vertex -40.3661 -41.9511 -4242.64
   vertex -36.1346 -38.3107 -4242.64
  endloop
 endfacet
 facet normal 0.652175 -0.758068 0
  outer loop
   vertex -40.3661 -41.9511 4242.64
   vertex -36.1346 -38.3107 -4242.64
   vertex -36.1346 -38.3107 4242.64
  endloop
 endfacet
 facet normal 0.646403 -0.762996 0
  outer loop
   vertex -36.1346 -38.3107 4242.64
   vertex -36.1346 -38.3107 -4242.64
   vertex -32.1727 -34.9542 -4242.64
  endloop
 endfacet
 facet normal 0.646403 -0.762996 0
  outer loop
   vertex -36.1346 -38.3107 4242.64
   vertex -32.1727 -34.9542 -4242.64
   vertex -32.1727 -34.9542 4242.64
  endloop
 endfacet
 facet normal 0.641069 -0.767483 0
  outer loop
   vertex -32.1727 -34.9542 4242.64
   vertex -32.1727 -34.9542 -4242.64
   vertex -28.4655 -31.8576 -4242.64
  endloop
 endfacet
 facet normal 0.641069 -0.767483 0
  outer loop
   vertex -32.1727 -34.9542 4242.64
   vertex -28.4655 -31.8576 -4242.64
   vertex -28.4655 -31.8576 4242.64
  endloop
 endfacet
 facet normal 0.635922 -0.771754 0
  outer loop
   vertex -28.4655 -31.8576 4242.64
   vertex -28.4655 -31.8576 -4242.64
   vertex -24.9978 -29.0003 -4242.64
  endloop
 endfacet
 facet normal 0.635922 -0.771754 0
  outer loop
   vertex -28.4655 -31.8576 4242.64
   vertex -24.9978 -29.0003 -4242.64
   vertex -24.9978 -29.0003 4242.64
  endloop
 endfacet
 facet normal 0.632478 -0.774578 0
  outer loop
   vertex -24.9978 -29.0003 4242.64
   vertex -24.9978 -29.0003 -4242.64
   vertex -21.7602 -26.3566 -4242.64
  endloop
 endfacet
 facet normal 0.632478 -0.774578 0
  outer loop
   vertex -24.9978 -29.0003 4242.64
   vertex -21.7602 -26.3566 -4242.64
   vertex -21.7602 -26.3566 4242.64
  endloop
 endfacet
 facet normal 0.629022 -0.777388 0
  outer loop
   vertex -21.7602 -26.3566 4242.64
   vertex -21.7602 -26.3566 -4242.64
   vertex -18.7376 -23.9109 -4242.64
  endloop
 endfacet
 facet normal 0.629022 -0.777388 0
  outer loop
   vertex -21.7602 -26.3566 4242.64
   vertex -18.7376 -23.9109 -4242.64
   vertex -18.7376 -23.9109 4242.64
  endloop
 endfacet
 facet normal 0.625487 -0.780234 0
  outer loop
   vertex -18.7376 -23.9109 4242.64
   vertex -18.7376 -23.9109 -4242.64
   vertex -15.9156 -21.6486 -4242.64
  endloop
 endfacet
 facet normal 0.625487 -0.780234 0
  outer loop
   vertex -18.7376 -23.9109 4242.64
   vertex -15.9156 -21.6486 -4242.64
   vertex -15.9156 -21.6486 4242.64
  endloop
 endfacet
 facet normal 0.622158 -0.782892 0
  outer loop
   vertex -15.9156 -21.6486 4242.64
   vertex -15.9156 -21.6486 -4242.64
   vertex -13.2815 -19.5553 -4242.64
  endloop
 endfacet
 facet normal 0.622158 -0.782892 0
  outer loop
   vertex -15.9156 -21.6486 4242.64
   vertex -13.2815 -19.5553 -4242.64
   vertex -13.2815 -19.5553 4242.64
  endloop
 endfacet
 facet normal 0.619356 -0.78511 0
  outer loop
   vertex -13.2815 -19.5553 4242.64
   vertex -13.2815 -19.5553 -4242.64
   vertex -10.8242 -17.6168 -4242.64
  endloop
 endfacet
 facet normal 0.619356 -0.78511 0
  outer loop
   vertex -13.2815 -19.5553 4242.64
   vertex -10.8242 -17.6168 -4242.64
   vertex -10.8242 -17.6168 4242.64
  endloop
 endfacet
 facet normal 0.617012 -0.786954 0
  outer loop
   vertex -10.8242 -17.6168 4242.64
   vertex -10.8242 -17.6168 -4242.64
   vertex -8.533 -15.8204 -4242.64
  endloop
 endfacet
 facet normal 0.617012 -0.786954 0
  outer loop
   vertex -10.8242 -17.6168 4242.64
   vertex -8.533 -15.8204 -4242.64
   vertex -8.533 -15.8204 4242.64
  endloop
 endfacet
 facet normal 0.615109 -0.788442 0
  outer loop
   vertex -8.533 -15.8204 4242.64
   vertex -8.533 -15.8204 -4242.64
   vertex -6.39763 -14.1544 -4242.64
  endloop
 endfacet
 facet normal 0.615109 -0.788442 0
  outer loop
   vertex -8.533 -15.8204 4242.64
   vertex -6.39763 -14.1544 -4242.64
   vertex -6.39763 -14.1544 4242.64
  endloop
 endfacet
 facet normal 0.613522 -0.789678 0
  outer loop
   vertex -6.39763 -14.1544 4242.64
   vertex -6.39763 -14.1544 -4242.64
   vertex -4.40812 -12.6087 -4242.64
  endloop
 endfacet
 facet normal 0.613522 -0.789678 0
  outer loop
   vertex -6.39763 -14.1544 4242.64
   vertex -4.40812 -12.6087 -4242.64
   vertex -4.40812 -12.6087 4242.64
  endloop
 endfacet
 facet normal 0.612192 -0.790709 0
  outer loop
   vertex -4.40812 -12.6087 4242.64
   vertex -4.40812 -12.6087 -4242.64
   vertex -2.55499 -11.174 -4242.64
  endloop
 endfacet
 facet normal 0.612192 -0.790709 0
  outer loop
   vertex -4.40812 -12.6087 4242.64
   vertex -2.55499 -11.174 -4242.64
   vertex -2.55499 -11.174 4242.64
  endloop
 endfacet
 facet normal 0.611239 -0.791446 0
  outer loop
   vertex -2.55499 -11.174 4242.64
   vertex -2.55499 -11.174 -4242.64
   vertex -0.829546 -9.8414 -4242.64
  endloop
 endfacet
 facet normal 0.611239 -0.791446 0
  outer loop
   vertex -2.55499 -11.174 4242.64
   vertex -0.829546 -9.8414 -4242.64
   vertex -0.829546 -9.8414 4242.64
  endloop
 endfacet
 facet normal 0.610396 -0.792097 0
  outer loop
   vertex -0.829546 -9.8414 4242.64
   vertex -0.829546 -9.8414 -4242.64
   vertex 0.776838 -8.60351 -4242.64
  endloop
 endfacet
 facet normal 0.610396 -0.792097 0
  outer loop
   vertex -0.829546 -9.8414 4242.64
   vertex 0.776838 -8.60351 -4242.64
   vertex 0.776838 -8.60351 4242.64
  endloop
 endfacet
 facet normal 0.609148 -0.793056 0
  outer loop
   vertex 0.776838 -8.60351 4242.64
   vertex 0.776838 -8.60351 -4242.64
   vertex 2.27296 -7.45434 -4242.64
  endloop
 endfacet
 facet normal 0.609148 -0.793056 0
  outer loop
   vertex 0.776838 -8.60351 4242.64
   vertex 2.27296 -7.45434 -4242.64
   vertex 2.27296 -7.45434 4242.64
  endloop
 endfacet
 facet normal 0.607572 -0.794265 0
  outer loop
   vertex 2.27296 -7.45434 4242.64
   vertex 2.27296 -7.45434 -4242.64
   vertex 3.66682 -6.3881 -4242.64
  endloop
 endfacet
 facet normal 0.607572 -0.794265 0
  outer loop
   vertex 2.27296 -7.45434 4242.64
   vertex 3.66682 -6.3881 -4242.64
   vertex 3.66682 -6.3881 4242.64
  endloop
 endfacet
 facet normal 0.606194 -0.795317 0
  outer loop
   vertex 3.66682 -6.3881 4242.64
   vertex 3.66682 -6.3881 -4242.64
   vertex 4.96515 -5.39851 -4242.64
  endloop
 endfacet
 facet normal 0.606194 -0.795317 0
  outer loop
   vertex 3.66682 -6.3881 4242.64
   vertex 4.96515 -5.39851 -4242.64
   vertex 4.96515 -5.39851 4242.64
  endloop
 endfacet
 facet normal 0.605347 -0.795962 0
  outer loop
   vertex 4.96515 -5.39851 4242.64
   vertex 4.96515 -5.39851 -4242.64
   vertex 6.17388 -4.47924 -4242.64
  endloop
 endfacet
 facet normal 0.605347 -0.795962 0
  outer loop
   vertex 4.96515 -5.39851 4242.64
   vertex 6.17388 -4.47924 -4242.64
   vertex 6.17388 -4.47924 4242.64
  endloop
 endfacet
 facet normal 0.604685 -0.796464 0
  outer loop
   vertex 6.17388 -4.47924 4242.64
   vertex 6.17388 -4.47924 -4242.64
   vertex 7.29899 -3.62505 -4242.64
  endloop
 endfacet
 facet normal 0.604685 -0.796464 0
  outer loop
   vertex 6.17388 -4.47924 4242.64
   vertex 7.29899 -3.62505 -4242.64
   vertex 7.29899 -3.62505 4242.64
  endloop
 endfacet
 facet normal 0.60408 -0.796924 0
  outer loop
   vertex 7.29899 -3.62505 4242.64
   vertex 7.29899 -3.62505 -4242.64
   vertex 8.34621 -2.83124 -4242.64
  endloop
 endfacet
 facet normal 0.60408 -0.796924 0
  outer loop
   vertex 7.29899 -3.62505 4242.64
   vertex 8.34621 -2.83124 -4242.64
   vertex 8.34621 -2.83124 4242.64
  endloop
 endfacet
 facet normal 0.603699 -0.797212 0
  outer loop
   vertex 8.34621 -2.83124 4242.64
   vertex 8.34621 -2.83124 -4242.64
   vertex 9.32072 -2.09328 -4242.64
  endloop
 endfacet
 facet normal 0.603699 -0.797212 0
  outer loop
   vertex 8.34621 -2.83124 4242.64
   vertex 9.32072 -2.09328 -4242.64
   vertex 9.32072 -2.09328 4242.64
  endloop
 endfacet
 facet normal 0.603612 -0.797278 0
  outer loop
   vertex 9.32072 -2.09328 4242.64
   vertex 9.32072 -2.09328 -4242.64
   vertex 10.2273 -1.4069 -4242.64
  endloop
 endfacet
 facet normal 0.603612 -0.797278 0
  outer loop
   vertex 9.32072 -2.09328 4242.64
   vertex 10.2273 -1.4069 -4242.64
   vertex 10.2273 -1.4069 4242.64
  endloop
 endfacet
 facet normal 0.60365 -0.797249 0
  outer loop
   vertex 10.2273 -1.4069 4242.64
   vertex 10.2273 -1.4069 -4242.64
   vertex 11.0706 -0.768375 -4242.64
  endloop
 endfacet
 facet normal 0.60365 -0.797249 0
  outer loop
   vertex 10.2273 -1.4069 4242.64
   vertex 11.0706 -0.768375 -4242.64
   vertex 11.0706 -0.768375 4242.64
  endloop
 endfacet
 facet normal 0.603674 -0.797231 0
  outer loop
   vertex 11.0706 -0.768375 4242.64
   vertex 11.0706 -0.768375 -4242.64
   vertex 11.8551 -0.174372 -4242.64
  endloop
 endfacet
 facet normal 0.603674 -0.797231 0
  outer loop
   vertex 11.0706 -0.768375 4242.64
   vertex 11.8551 -0.174372 -4242.64
   vertex 11.8551 -0.174372 4242.64
  endloop
 endfacet
 facet normal 0.603752 -0.797172 0
  outer loop
   vertex 11.8551 -0.174372 4242.64
   vertex 11.8551 -0.174372 -4242.64
   vertex 12.5848 0.378261 -4242.64
  endloop
 endfacet
 facet normal 0.603752 -0.797172 0
  outer loop
   vertex 11.8551 -0.174372 4242.64
   vertex 12.5848 0.378261 -4242.64
   vertex 12.5848 0.378261 4242.64
  endloop
 endfacet
 facet normal 0.604091 -0.796915 0
  outer loop
   vertex 12.5848 0.378261 4242.64
   vertex 12.5848 0.378261 -4242.64
   vertex 13.2633 0.892627 -4242.64
  endloop
 endfacet
 facet normal 0.604091 -0.796915 0
  outer loop
   vertex 12.5848 0.378261 4242.64
   vertex 13.2633 0.892627 -4242.64
   vertex 13.2633 0.892627 4242.64
  endloop
 endfacet
 facet normal 0.604561 -0.796559 0
  outer loop
   vertex 13.2633 0.892627 4242.64
   vertex 13.2633 0.892627 -4242.64
   vertex 13.8942 1.37148 -4242.64
  endloop
 endfacet
 facet normal 0.604561 -0.796559 0
  outer loop
   vertex 13.2633 0.892627 4242.64
   vertex 13.8942 1.37148 -4242.64
   vertex 13.8942 1.37148 4242.64
  endloop
 endfacet
 facet normal 0.604761 -0.796407 0
  outer loop
   vertex 13.8942 1.37148 4242.64
   vertex 13.8942 1.37148 -4242.64
   vertex 14.481 1.81707 -4242.64
  endloop
 endfacet
 facet normal 0.604761 -0.796407 0
  outer loop
   vertex 13.8942 1.37148 4242.64
   vertex 14.481 1.81707 -4242.64
   vertex 14.481 1.81707 4242.64
  endloop
 endfacet
 facet normal 0.605035 -0.796199 0
  outer loop
   vertex 14.481 1.81707 4242.64
   vertex 14.481 1.81707 -4242.64
   vertex 15.0268 2.23176 -4242.64
  endloop
 endfacet
 facet normal 0.605035 -0.796199 0
  outer loop
   vertex 14.481 1.81707 4242.64
   vertex 15.0268 2.23176 -4242.64
   vertex 15.0268 2.23176 4242.64
  endloop
 endfacet
 facet normal 0.605244 -0.79604 0
  outer loop
   vertex 15.0268 2.23176 4242.64
   vertex 15.0268 2.23176 -4242.64
   vertex 15.5343 2.61765 -4242.64
  endloop
 endfacet
 facet normal 0.605244 -0.79604 0
  outer loop
   vertex 15.0268 2.23176 4242.64
   vertex 15.5343 2.61765 -4242.64
   vertex 15.5343 2.61765 4242.64
  endloop
 endfacet
 facet normal 0.605031 -0.796202 0
  outer loop
   vertex 15.5343 2.61765 4242.64
   vertex 15.5343 2.61765 -4242.64
   vertex 16.0065 2.9765 -4242.64
  endloop
 endfacet
 facet normal 0.605031 -0.796202 0
  outer loop
   vertex 15.5343 2.61765 4242.64
   vertex 16.0065 2.9765 -4242.64
   vertex 16.0065 2.9765 4242.64
  endloop
 endfacet
 facet normal 0.604875 -0.79632 0
  outer loop
   vertex 16.0065 2.9765 4242.64
   vertex 16.0065 2.9765 -4242.64
   vertex 16.4459 3.31022 -4242.64
  endloop
 endfacet
 facet normal 0.604875 -0.79632 0
  outer loop
   vertex 16.0065 2.9765 4242.64
   vertex 16.4459 3.31022 -4242.64
   vertex 16.4459 3.31022 4242.64
  endloop
 endfacet
 facet normal 0.604934 -0.796276 0
  outer loop
   vertex 16.4459 3.31022 4242.64
   vertex 16.4459 3.31022 -4242.64
   vertex 16.8545 3.62069 -4242.64
  endloop
 endfacet
 facet normal 0.604934 -0.796276 0
  outer loop
   vertex 16.4459 3.31022 4242.64
   vertex 16.8545 3.62069 -4242.64
   vertex 16.8545 3.62069 4242.64
  endloop
 endfacet
 facet normal 0.605129 -0.796127 0
  outer loop
   vertex 16.8545 3.62069 4242.64
   vertex 16.8545 3.62069 -4242.64
   vertex 17.2346 3.90959 -4242.64
  endloop
 endfacet
 facet normal 0.605129 -0.796127 0
  outer loop
   vertex 16.8545 3.62069 4242.64
   vertex 17.2346 3.90959 -4242.64
   vertex 17.2346 3.90959 4242.64
  endloop
 endfacet
 facet normal 0.605253 -0.796033 0
  outer loop
   vertex 17.2346 3.90959 4242.64
   vertex 17.2346 3.90959 -4242.64
   vertex 17.5882 4.17839 -4242.64
  endloop
 endfacet
 facet normal 0.605253 -0.796033 0
  outer loop
   vertex 17.2346 3.90959 4242.64
   vertex 17.5882 4.17839 -4242.64
   vertex 17.5882 4.17839 4242.64
  endloop
 endfacet
 facet normal 0.605343 -0.795965 0
  outer loop
   vertex 17.5882 4.17839 4242.64
   vertex 17.5882 4.17839 -4242.64
   vertex 17.917 4.42847 -4242.64
  endloop
 endfacet
 facet normal 0.605343 -0.795965 0
  outer loop
   vertex 17.5882 4.17839 4242.64
   vertex 17.917 4.42847 -4242.64
   vertex 17.917 4.42847 4242.64
  endloop
 endfacet
 facet normal 0.605471 -0.795868 0
  outer loop
   vertex 17.917 4.42847 4242.64
   vertex 17.917 4.42847 -4242.64
   vertex 18.2228 4.66116 -4242.64
  endloop
 endfacet
 facet normal 0.605471 -0.795868 0
  outer loop
   vertex 17.917 4.42847 4242.64
   vertex 18.2228 4.66116 -4242.64
   vertex 18.2228 4.66116 4242.64
  endloop
 endfacet
 facet normal 0.605526 -0.795826 0
  outer loop
   vertex 18.2228 4.66116 4242.64
   vertex 18.2228 4.66116 -4242.64
   vertex 18.5073 4.87763 -4242.64
  endloop
 endfacet
 facet normal 0.605526 -0.795826 0
  outer loop
   vertex 18.2228 4.66116 4242.64
   vertex 18.5073 4.87763 -4242.64
   vertex 18.5073 4.87763 4242.64
  endloop
 endfacet
 facet normal 0.605527 -0.795825 0
  outer loop
   vertex 18.5073 4.87763 4242.64
   vertex 18.5073 4.87763 -4242.64
   vertex 18.772 5.079 -4242.64
  endloop
 endfacet
 facet normal 0.605527 -0.795825 0
  outer loop
   vertex 18.5073 4.87763 4242.64
   vertex 18.772 5.079 -4242.64
   vertex 18.772 5.079 4242.64
  endloop
 endfacet
 facet normal -0.279648 0.960103 0
  outer loop
   vertex -26.1184 -108.559 4242.64
   vertex -26.1184 -108.559 -4242.64
   vertex -26.3766 -108.634 -4242.64
  endloop
 endfacet
 facet normal -0.279648 0.960103 0
  outer loop
   vertex -26.1184 -108.559 4242.64
   vertex -26.3766 -108.634 -4242.64
   vertex -26.3766 -108.634 4242.64
  endloop
 endfacet
 facet normal -0.279707 0.960085 0
  outer loop
   vertex -26.3766 -108.634 4242.64
   vertex -26.3766 -108.634 -4242.64
   vertex -26.6606 -108.717 -4242.64
  endloop
 endfacet
 facet normal -0.279707 0.960085 0
  outer loop
   vertex -26.3766 -108.634 4242.64
   vertex -26.6606 -108.717 -4242.64
   vertex -26.6606 -108.717 4242.64
  endloop
 endfacet
 facet normal -0.279737 0.960077 0
  outer loop
   vertex -26.6606 -108.717 4242.64
   vertex -26.6606 -108.717 -4242.64
   vertex -26.9731 -108.808 -4242.64
  endloop
 endfacet
 facet normal -0.279737 0.960077 0
  outer loop
   vertex -26.6606 -108.717 4242.64
   vertex -26.9731 -108.808 -4242.64
   vertex -26.9731 -108.808 4242.64
  endloop
 endfacet
 facet normal -0.279371 0.960183 0
  outer loop
   vertex -26.9731 -108.808 4242.64
   vertex -26.9731 -108.808 -4242.64
   vertex -27.3168 -108.908 -4242.64
  endloop
 endfacet
 facet normal -0.279371 0.960183 0
  outer loop
   vertex -26.9731 -108.808 4242.64
   vertex -27.3168 -108.908 -4242.64
   vertex -27.3168 -108.908 4242.64
  endloop
 endfacet
 facet normal -0.280095 0.959972 0
  outer loop
   vertex -27.3168 -108.908 4242.64
   vertex -27.3168 -108.908 -4242.64
   vertex -27.6948 -109.018 -4242.64
  endloop
 endfacet
 facet normal -0.280095 0.959972 0
  outer loop
   vertex -27.3168 -108.908 4242.64
   vertex -27.6948 -109.018 -4242.64
   vertex -27.6948 -109.018 4242.64
  endloop
 endfacet
 facet normal -0.280155 0.959955 0
  outer loop
   vertex -27.6948 -109.018 4242.64
   vertex -27.6948 -109.018 -4242.64
   vertex -28.1106 -109.139 -4242.64
  endloop
 endfacet
 facet normal -0.280155 0.959955 0
  outer loop
   vertex -27.6948 -109.018 4242.64
   vertex -28.1106 -109.139 -4242.64
   vertex -28.1106 -109.139 4242.64
  endloop
 endfacet
 facet normal -0.271435 0.962457 0
  outer loop
   vertex -28.1106 -109.139 4242.64
   vertex -28.1106 -109.139 -4242.64
   vertex -28.5692 -109.269 -4242.64
  endloop
 endfacet
 facet normal -0.271435 0.962457 0
  outer loop
   vertex -28.1106 -109.139 4242.64
   vertex -28.5692 -109.269 -4242.64
   vertex -28.5692 -109.269 4242.64
  endloop
 endfacet
 facet normal -0.261651 0.965163 0
  outer loop
   vertex -28.5692 -109.269 4242.64
   vertex -28.5692 -109.269 -4242.64
   vertex -29.075 -109.406 -4242.64
  endloop
 endfacet
 facet normal -0.261651 0.965163 0
  outer loop
   vertex -28.5692 -109.269 4242.64
   vertex -29.075 -109.406 -4242.64
   vertex -29.075 -109.406 4242.64
  endloop
 endfacet
 facet normal -0.258402 0.966037 0
  outer loop
   vertex -29.075 -109.406 4242.64
   vertex -29.075 -109.406 -4242.64
   vertex -29.6319 -109.555 -4242.64
  endloop
 endfacet
 facet normal -0.258402 0.966037 0
  outer loop
   vertex -29.075 -109.406 4242.64
   vertex -29.6319 -109.555 -4242.64
   vertex -29.6319 -109.555 4242.64
  endloop
 endfacet
 facet normal -0.258973 0.965885 0
  outer loop
   vertex -29.6319 -109.555 4242.64
   vertex -29.6319 -109.555 -4242.64
   vertex -30.2445 -109.719 -4242.64
  endloop
 endfacet
 facet normal -0.258973 0.965885 0
  outer loop
   vertex -29.6319 -109.555 4242.64
   vertex -30.2445 -109.719 -4242.64
   vertex -30.2445 -109.719 4242.64
  endloop
 endfacet
 facet normal -0.260695 0.965421 0
  outer loop
   vertex -30.2445 -109.719 4242.64
   vertex -30.2445 -109.719 -4242.64
   vertex -30.9179 -109.901 -4242.64
  endloop
 endfacet
 facet normal -0.260695 0.965421 0
  outer loop
   vertex -30.2445 -109.719 4242.64
   vertex -30.9179 -109.901 -4242.64
   vertex -30.9179 -109.901 4242.64
  endloop
 endfacet
 facet normal -0.265052 0.964234 0
  outer loop
   vertex -30.9179 -109.901 4242.64
   vertex -30.9179 -109.901 -4242.64
   vertex -31.6578 -110.104 -4242.64
  endloop
 endfacet
 facet normal -0.265052 0.964234 0
  outer loop
   vertex -30.9179 -109.901 4242.64
   vertex -31.6578 -110.104 -4242.64
   vertex -31.6578 -110.104 4242.64
  endloop
 endfacet
 facet normal -0.264433 0.964404 0
  outer loop
   vertex -31.6578 -110.104 4242.64
   vertex -31.6578 -110.104 -4242.64
   vertex -32.4718 -110.327 -4242.64
  endloop
 endfacet
 facet normal -0.264433 0.964404 0
  outer loop
   vertex -31.6578 -110.104 4242.64
   vertex -32.4718 -110.327 -4242.64
   vertex -32.4718 -110.327 4242.64
  endloop
 endfacet
 facet normal -0.264755 0.964316 0
  outer loop
   vertex -32.4718 -110.327 4242.64
   vertex -32.4718 -110.327 -4242.64
   vertex -33.3672 -110.573 -4242.64
  endloop
 endfacet
 facet normal -0.264755 0.964316 0
  outer loop
   vertex -32.4718 -110.327 4242.64
   vertex -33.3672 -110.573 -4242.64
   vertex -33.3672 -110.573 4242.64
  endloop
 endfacet
 facet normal -0.265757 0.96404 0
  outer loop
   vertex -33.3672 -110.573 4242.64
   vertex -33.3672 -110.573 -4242.64
   vertex -34.3518 -110.845 -4242.64
  endloop
 endfacet
 facet normal -0.265757 0.96404 0
  outer loop
   vertex -33.3672 -110.573 4242.64
   vertex -34.3518 -110.845 -4242.64
   vertex -34.3518 -110.845 4242.64
  endloop
 endfacet
 facet normal -0.258433 0.966029 0
  outer loop
   vertex -34.3518 -110.845 4242.64
   vertex -34.3518 -110.845 -4242.64
   vertex -35.437 -111.135 -4242.64
  endloop
 endfacet
 facet normal -0.258433 0.966029 0
  outer loop
   vertex -34.3518 -110.845 4242.64
   vertex -35.437 -111.135 -4242.64
   vertex -35.437 -111.135 4242.64
  endloop
 endfacet
 facet normal -0.254194 0.967153 0
  outer loop
   vertex -35.437 -111.135 4242.64
   vertex -35.437 -111.135 -4242.64
   vertex -36.6322 -111.449 -4242.64
  endloop
 endfacet
 facet normal -0.254194 0.967153 0
  outer loop
   vertex -35.437 -111.135 4242.64
   vertex -36.6322 -111.449 -4242.64
   vertex -36.6322 -111.449 4242.64
  endloop
 endfacet
 facet normal -0.250521 0.968111 0
  outer loop
   vertex -36.6322 -111.449 4242.64
   vertex -36.6322 -111.449 -4242.64
   vertex -37.9483 -111.79 -4242.64
  endloop
 endfacet
 facet normal -0.250521 0.968111 0
  outer loop
   vertex -36.6322 -111.449 4242.64
   vertex -37.9483 -111.79 -4242.64
   vertex -37.9483 -111.79 4242.64
  endloop
 endfacet
 facet normal -0.246992 0.969018 0
  outer loop
   vertex -37.9483 -111.79 4242.64
   vertex -37.9483 -111.79 -4242.64
   vertex -39.3973 -112.159 -4242.64
  endloop
 endfacet
 facet normal -0.246992 0.969018 0
  outer loop
   vertex -37.9483 -111.79 4242.64
   vertex -39.3973 -112.159 -4242.64
   vertex -39.3973 -112.159 4242.64
  endloop
 endfacet
 facet normal -0.238899 0.971044 0
  outer loop
   vertex -39.3973 -112.159 4242.64
   vertex -39.3973 -112.159 -4242.64
   vertex -40.9945 -112.552 -4242.64
  endloop
 endfacet
 facet normal -0.238899 0.971044 0
  outer loop
   vertex -39.3973 -112.159 4242.64
   vertex -40.9945 -112.552 -4242.64
   vertex -40.9945 -112.552 4242.64
  endloop
 endfacet
 facet normal -0.226162 0.97409 0
  outer loop
   vertex -40.9945 -112.552 4242.64
   vertex -40.9945 -112.552 -4242.64
   vertex -42.7569 -112.961 -4242.64
  endloop
 endfacet
 facet normal -0.226162 0.97409 0
  outer loop
   vertex -40.9945 -112.552 4242.64
   vertex -42.7569 -112.961 -4242.64
   vertex -42.7569 -112.961 4242.64
  endloop
 endfacet
 facet normal -0.213371 0.976971 0
  outer loop
   vertex -42.7569 -112.961 4242.64
   vertex -42.7569 -112.961 -4242.64
   vertex -44.7013 -113.386 -4242.64
  endloop
 endfacet
 facet normal -0.213371 0.976971 0
  outer loop
   vertex -42.7569 -112.961 4242.64
   vertex -44.7013 -113.386 -4242.64
   vertex -44.7013 -113.386 4242.64
  endloop
 endfacet
 facet normal -0.199645 0.979868 0
  outer loop
   vertex -44.7013 -113.386 4242.64
   vertex -44.7013 -113.386 -4242.64
   vertex -46.8465 -113.823 -4242.64
  endloop
 endfacet
 facet normal -0.199645 0.979868 0
  outer loop
   vertex -44.7013 -113.386 4242.64
   vertex -46.8465 -113.823 -4242.64
   vertex -46.8465 -113.823 4242.64
  endloop
 endfacet
 facet normal -0.188586 0.982057 0
  outer loop
   vertex -46.8465 -113.823 4242.64
   vertex -46.8465 -113.823 -4242.64
   vertex -49.2115 -114.277 -4242.64
  endloop
 endfacet
 facet normal -0.188586 0.982057 0
  outer loop
   vertex -46.8465 -113.823 4242.64
   vertex -49.2115 -114.277 -4242.64
   vertex -49.2115 -114.277 4242.64
  endloop
 endfacet
 facet normal -0.174253 0.984701 0
  outer loop
   vertex -49.2115 -114.277 4242.64
   vertex -49.2115 -114.277 -4242.64
   vertex -51.82 -114.739 -4242.64
  endloop
 endfacet
 facet normal -0.174253 0.984701 0
  outer loop
   vertex -49.2115 -114.277 4242.64
   vertex -51.82 -114.739 -4242.64
   vertex -51.82 -114.739 4242.64
  endloop
 endfacet
 facet normal -0.149447 0.98877 0
  outer loop
   vertex -51.82 -114.739 4242.64
   vertex -51.82 -114.739 -4242.64
   vertex -54.4392 -115.134 -4242.64
  endloop
 endfacet
 facet normal -0.149447 0.98877 0
  outer loop
   vertex -51.82 -114.739 4242.64
   vertex -54.4392 -115.134 -4242.64
   vertex -54.4392 -115.134 4242.64
  endloop
 endfacet
 facet normal -0.121037 0.992648 0
  outer loop
   vertex -54.4392 -115.134 4242.64
   vertex -54.4392 -115.134 -4242.64
   vertex -56.8966 -115.434 -4242.64
  endloop
 endfacet
 facet normal -0.121037 0.992648 0
  outer loop
   vertex -54.4392 -115.134 4242.64
   vertex -56.8966 -115.434 -4242.64
   vertex -56.8966 -115.434 4242.64
  endloop
 endfacet
 facet normal -0.080933 0.99672 0
  outer loop
   vertex -56.8966 -115.434 4242.64
   vertex -56.8966 -115.434 -4242.64
   vertex -59.2027 -115.621 -4242.64
  endloop
 endfacet
 facet normal -0.080933 0.99672 0
  outer loop
   vertex -56.8966 -115.434 4242.64
   vertex -59.2027 -115.621 -4242.64
   vertex -59.2027 -115.621 4242.64
  endloop
 endfacet
 facet normal -0.0456934 0.998956 0
  outer loop
   vertex -59.2027 -115.621 4242.64
   vertex -59.2027 -115.621 -4242.64
   vertex -61.3626 -115.72 -4242.64
  endloop
 endfacet
 facet normal -0.0456934 0.998956 0
  outer loop
   vertex -59.2027 -115.621 4242.64
   vertex -61.3626 -115.72 -4242.64
   vertex -61.3626 -115.72 4242.64
  endloop
 endfacet
 facet normal -0.0127602 0.999919 0
  outer loop
   vertex -61.3626 -115.72 4242.64
   vertex -61.3626 -115.72 -4242.64
   vertex -63.3834 -115.746 -4242.64
  endloop
 endfacet
 facet normal -0.0127602 0.999919 0
  outer loop
   vertex -61.3626 -115.72 4242.64
   vertex -63.3834 -115.746 -4242.64
   vertex -63.3834 -115.746 4242.64
  endloop
 endfacet
 facet normal 0.00966714 0.999953 -0
  outer loop
   vertex -63.3834 -115.746 4242.64
   vertex -63.3834 -115.746 -4242.64
   vertex -65.2719 -115.728 -4242.64
  endloop
 endfacet
 facet normal 0.00966714 0.999953 -0
  outer loop
   vertex -63.3834 -115.746 4242.64
   vertex -65.2719 -115.728 -4242.64
   vertex -65.2719 -115.728 4242.64
  endloop
 endfacet
 facet normal 0.0409375 0.999162 -0
  outer loop
   vertex -65.2719 -115.728 4242.64
   vertex -65.2719 -115.728 -4242.64
   vertex -67.0355 -115.655 -4242.64
  endloop
 endfacet
 facet normal 0.0409375 0.999162 -0
  outer loop
   vertex -65.2719 -115.728 4242.64
   vertex -67.0355 -115.655 -4242.64
   vertex -67.0355 -115.655 4242.64
  endloop
 endfacet
 facet normal 0.0835098 0.996507 -0
  outer loop
   vertex -67.0355 -115.655 4242.64
   vertex -67.0355 -115.655 -4242.64
   vertex -68.6793 -115.518 -4242.64
  endloop
 endfacet
 facet normal 0.0835098 0.996507 -0
  outer loop
   vertex -67.0355 -115.655 4242.64
   vertex -68.6793 -115.518 -4242.64
   vertex -68.6793 -115.518 4242.64
  endloop
 endfacet
 facet normal 0.138369 0.990381 -0
  outer loop
   vertex -68.6793 -115.518 4242.64
   vertex -68.6793 -115.518 -4242.64
   vertex -70.206 -115.304 -4242.64
  endloop
 endfacet
 facet normal 0.138369 0.990381 -0
  outer loop
   vertex -68.6793 -115.518 4242.64
   vertex -70.206 -115.304 -4242.64
   vertex -70.206 -115.304 4242.64
  endloop
 endfacet
 facet normal 0.190804 0.981628 -0
  outer loop
   vertex -70.206 -115.304 4242.64
   vertex -70.206 -115.304 -4242.64
   vertex -71.6202 -115.029 -4242.64
  endloop
 endfacet
 facet normal 0.190804 0.981628 -0
  outer loop
   vertex -70.206 -115.304 4242.64
   vertex -71.6202 -115.029 -4242.64
   vertex -71.6202 -115.029 4242.64
  endloop
 endfacet
 facet normal 0.25372 0.967278 -0
  outer loop
   vertex -71.6202 -115.029 4242.64
   vertex -71.6202 -115.029 -4242.64
   vertex -72.9226 -114.688 -4242.64
  endloop
 endfacet
 facet normal 0.25372 0.967278 -0
  outer loop
   vertex -71.6202 -115.029 4242.64
   vertex -72.9226 -114.688 -4242.64
   vertex -72.9226 -114.688 4242.64
  endloop
 endfacet
 facet normal 0.293504 0.955958 -0
  outer loop
   vertex -72.9226 -114.688 4242.64
   vertex -72.9226 -114.688 -4242.64
   vertex -74.1257 -114.318 -4242.64
  endloop
 endfacet
 facet normal 0.293504 0.955958 -0
  outer loop
   vertex -72.9226 -114.688 4242.64
   vertex -74.1257 -114.318 -4242.64
   vertex -74.1257 -114.318 4242.64
  endloop
 endfacet
 facet normal 0.330507 0.943803 -0
  outer loop
   vertex -74.1257 -114.318 4242.64
   vertex -74.1257 -114.318 -4242.64
   vertex -75.2357 -113.93 -4242.64
  endloop
 endfacet
 facet normal 0.330507 0.943803 -0
  outer loop
   vertex -74.1257 -114.318 4242.64
   vertex -75.2357 -113.93 -4242.64
   vertex -75.2357 -113.93 4242.64
  endloop
 endfacet
 facet normal 0.38016 0.924921 -0
  outer loop
   vertex -75.2357 -113.93 4242.64
   vertex -75.2357 -113.93 -4242.64
   vertex -76.2523 -113.512 -4242.64
  endloop
 endfacet
 facet normal 0.38016 0.924921 -0
  outer loop
   vertex -75.2357 -113.93 4242.64
   vertex -76.2523 -113.512 -4242.64
   vertex -76.2523 -113.512 4242.64
  endloop
 endfacet
 facet normal 0.433707 0.901054 -0
  outer loop
   vertex -76.2523 -113.512 4242.64
   vertex -76.2523 -113.512 -4242.64
   vertex -77.1778 -113.066 -4242.64
  endloop
 endfacet
 facet normal 0.433707 0.901054 -0
  outer loop
   vertex -76.2523 -113.512 4242.64
   vertex -77.1778 -113.066 -4242.64
   vertex -77.1778 -113.066 4242.64
  endloop
 endfacet
 facet normal 0.483367 0.875418 -0
  outer loop
   vertex -77.1778 -113.066 4242.64
   vertex -77.1778 -113.066 -4242.64
   vertex -78.0183 -112.602 -4242.64
  endloop
 endfacet
 facet normal 0.483367 0.875418 -0
  outer loop
   vertex -77.1778 -113.066 4242.64
   vertex -78.0183 -112.602 -4242.64
   vertex -78.0183 -112.602 4242.64
  endloop
 endfacet
 facet normal 0.515036 0.857169 -0
  outer loop
   vertex -78.0183 -112.602 4242.64
   vertex -78.0183 -112.602 -4242.64
   vertex -78.7874 -112.14 -4242.64
  endloop
 endfacet
 facet normal 0.515036 0.857169 -0
  outer loop
   vertex -78.0183 -112.602 4242.64
   vertex -78.7874 -112.14 -4242.64
   vertex -78.7874 -112.14 4242.64
  endloop
 endfacet
 facet normal 0.548322 0.836267 -0
  outer loop
   vertex -78.7874 -112.14 4242.64
   vertex -78.7874 -112.14 -4242.64
   vertex -79.4887 -111.68 -4242.64
  endloop
 endfacet
 facet normal 0.548322 0.836267 -0
  outer loop
   vertex -78.7874 -112.14 4242.64
   vertex -79.4887 -111.68 -4242.64
   vertex -79.4887 -111.68 4242.64
  endloop
 endfacet
 facet normal 0.588441 0.80854 -0
  outer loop
   vertex -79.4887 -111.68 4242.64
   vertex -79.4887 -111.68 -4242.64
   vertex -80.1223 -111.219 -4242.64
  endloop
 endfacet
 facet normal 0.588441 0.80854 -0
  outer loop
   vertex -79.4887 -111.68 4242.64
   vertex -80.1223 -111.219 -4242.64
   vertex -80.1223 -111.219 4242.64
  endloop
 endfacet
 facet normal 0.630343 0.776317 -0
  outer loop
   vertex -80.1223 -111.219 4242.64
   vertex -80.1223 -111.219 -4242.64
   vertex -80.6909 -110.758 -4242.64
  endloop
 endfacet
 facet normal 0.630343 0.776317 -0
  outer loop
   vertex -80.1223 -111.219 4242.64
   vertex -80.6909 -110.758 -4242.64
   vertex -80.6909 -110.758 4242.64
  endloop
 endfacet
 facet normal 0.668083 0.744087 -0
  outer loop
   vertex -80.6909 -110.758 4242.64
   vertex -80.6909 -110.758 -4242.64
   vertex -81.2002 -110.3 -4242.64
  endloop
 endfacet
 facet normal 0.668083 0.744087 -0
  outer loop
   vertex -80.6909 -110.758 4242.64
   vertex -81.2002 -110.3 -4242.64
   vertex -81.2002 -110.3 4242.64
  endloop
 endfacet
 facet normal 0.703076 0.711115 -0
  outer loop
   vertex -81.2002 -110.3 4242.64
   vertex -81.2002 -110.3 -4242.64
   vertex -81.6551 -109.851 -4242.64
  endloop
 endfacet
 facet normal 0.703076 0.711115 -0
  outer loop
   vertex -81.2002 -110.3 4242.64
   vertex -81.6551 -109.851 -4242.64
   vertex -81.6551 -109.851 4242.64
  endloop
 endfacet
 facet normal 0.734046 0.6791 -0
  outer loop
   vertex -81.6551 -109.851 4242.64
   vertex -81.6551 -109.851 -4242.64
   vertex -82.0611 -109.412 -4242.64
  endloop
 endfacet
 facet normal 0.734046 0.6791 -0
  outer loop
   vertex -81.6551 -109.851 4242.64
   vertex -82.0611 -109.412 -4242.64
   vertex -82.0611 -109.412 4242.64
  endloop
 endfacet
 facet normal 0.7562 0.654341 -0
  outer loop
   vertex -82.0611 -109.412 4242.64
   vertex -82.0611 -109.412 -4242.64
   vertex -82.4268 -108.989 -4242.64
  endloop
 endfacet
 facet normal 0.7562 0.654341 -0
  outer loop
   vertex -82.0611 -109.412 4242.64
   vertex -82.4268 -108.989 -4242.64
   vertex -82.4268 -108.989 4242.64
  endloop
 endfacet
 facet normal 0.780842 0.624729 -0
  outer loop
   vertex -82.4268 -108.989 4242.64
   vertex -82.4268 -108.989 -4242.64
   vertex -82.753 -108.581 -4242.64
  endloop
 endfacet
 facet normal 0.780842 0.624729 -0
  outer loop
   vertex -82.4268 -108.989 4242.64
   vertex -82.753 -108.581 -4242.64
   vertex -82.753 -108.581 4242.64
  endloop
 endfacet
endsolid
